<svg width="16" height="16" viewBox="0 0 16 16" fill="none" xmlns="http://www.w3.org/2000/svg">
<path fill-rule="evenodd" clip-rule="evenodd" d="M3.25 3.5C2.55964 3.5 2 4.05964 2 4.75V11.25C2 11.9404 2.55964 12.5 3.25 12.5H12.75C13.4404 12.5 14 11.9404 14 11.25V4.75C14 4.05964 13.4404 3.5 12.75 3.5H3.25ZM1 4.75C1 3.50736 2.00736 2.5 3.25 2.5H12.75C13.9926 2.5 15 3.50736 15 4.75V11.25C15 12.4926 13.9926 13.5 12.75 13.5H3.25C2.00736 13.5 1 12.4926 1 11.25V4.75Z" fill="#757575"/>
<path fill-rule="evenodd" clip-rule="evenodd" d="M14.5 6.9375H1.5V5.0625H14.5V6.9375ZM3.0625 9.375C3.0625 8.85723 3.48223 8.4375 4 8.4375H5.5C6.01777 8.4375 6.4375 8.85723 6.4375 9.375V10C6.4375 10.5178 6.01777 10.9375 5.5 10.9375H4C3.48223 10.9375 3.0625 10.5178 3.0625 10V9.375Z" fill="#757575"/>
</svg>
