<svg width="16" height="16" viewBox="0 0 16 16" fill="none" xmlns="http://www.w3.org/2000/svg">
<path fill-rule="evenodd" clip-rule="evenodd" d="M15.5 10C15.5 10.5523 15.0523 11 14.5 11L1.5 11C0.947715 11 0.5 10.5523 0.5 10L0.5 3C0.5 2.44771 0.947715 2 1.5 2L14.5 2C15.0523 2 15.5 2.44771 15.5 3L15.5 10ZM1.5 10L14.5 10V3L1.5 3L1.5 10Z" fill="#757575"/>
<path fill-rule="evenodd" clip-rule="evenodd" d="M1.5 12C1.5 11.7239 1.72386 11.5 2 11.5H14C14.2761 11.5 14.5 11.7239 14.5 12C14.5 12.2761 14.2761 12.5 14 12.5H2C1.72386 12.5 1.5 12.2761 1.5 12ZM2.5 13.5C2.5 13.2239 2.72386 13 3 13H13C13.2761 13 13.5 13.2239 13.5 13.5C13.5 13.7761 13.2761 14 13 14H3C2.72386 14 2.5 13.7761 2.5 13.5Z" fill="#757575"/>
<path fill-rule="evenodd" clip-rule="evenodd" d="M8 4.5C6.89543 4.5 6 5.39543 6 6.5C6 7.60457 6.89543 8.5 8 8.5C9.10457 8.5 10 7.60457 10 6.5C10 5.39543 9.10457 4.5 8 4.5ZM5 6.5C5 4.84315 6.34315 3.5 8 3.5C9.65685 3.5 11 4.84315 11 6.5C11 8.15685 9.65685 9.5 8 9.5C6.34315 9.5 5 8.15685 5 6.5Z" fill="#757575"/>
<path fill-rule="evenodd" clip-rule="evenodd" d="M3.5 2C3.77614 2 4 2.22386 4 2.5C4 2.89397 3.9224 3.28407 3.77164 3.64805C3.62087 4.01203 3.3999 4.34274 3.12132 4.62132C2.84274 4.8999 2.51203 5.12087 2.14805 5.27164C1.78407 5.4224 1.39397 5.5 1 5.5C0.723858 5.5 0.5 5.27614 0.5 5C0.5 4.72386 0.723858 4.5 1 4.5C1.26264 4.5 1.52272 4.44827 1.76537 4.34776C2.00802 4.24725 2.2285 4.09993 2.41421 3.91421C2.59993 3.7285 2.74725 3.50802 2.84776 3.26537C2.94827 3.02272 3 2.76264 3 2.5C3 2.22386 3.22386 2 3.5 2ZM12.5 2C12.7761 2 13 2.22386 13 2.5C13 3.03043 13.2107 3.53914 13.5858 3.91421C13.9609 4.28929 14.4696 4.5 15 4.5C15.2761 4.5 15.5 4.72386 15.5 5C15.5 5.27614 15.2761 5.5 15 5.5C14.2044 5.5 13.4413 5.18393 12.8787 4.62132C12.3161 4.05871 12 3.29565 12 2.5C12 2.22386 12.2239 2 12.5 2ZM0.5 8C0.5 7.72386 0.723858 7.5 1 7.5C1.39397 7.5 1.78407 7.5776 2.14805 7.72836C2.51203 7.87913 2.84274 8.1001 3.12132 8.37868C3.3999 8.65726 3.62087 8.98797 3.77164 9.35195C3.9224 9.71593 4 10.106 4 10.5C4 10.7761 3.77614 11 3.5 11C3.22386 11 3 10.7761 3 10.5C3 10.2374 2.94827 9.97728 2.84776 9.73463C2.74725 9.49198 2.59993 9.2715 2.41421 9.08579C2.2285 8.90007 2.00802 8.75275 1.76537 8.65224C1.52272 8.55173 1.26264 8.5 1 8.5C0.723858 8.5 0.5 8.27614 0.5 8ZM12.8787 8.37868C13.4413 7.81607 14.2044 7.5 15 7.5C15.2761 7.5 15.5 7.72386 15.5 8C15.5 8.27614 15.2761 8.5 15 8.5C14.4696 8.5 13.9609 8.71071 13.5858 9.08579C13.2107 9.46086 13 9.96957 13 10.5C13 10.7761 12.7761 11 12.5 11C12.2239 11 12 10.7761 12 10.5C12 9.70435 12.3161 8.94129 12.8787 8.37868Z" fill="#757575"/>
</svg>
