<svg width="18" height="17" viewBox="0 0 18 17" fill="none" xmlns="http://www.w3.org/2000/svg">
<path d="M15.5295 10.2479L15.5295 10.2479C15.52 10.2818 15.5152 10.3053 15.5147 10.3367C15.5141 10.3701 15.5186 10.4164 15.5334 10.494C15.5632 10.6505 15.6308 10.9127 15.7621 11.4131C15.8385 11.7038 15.9068 11.9695 15.9555 12.1635C15.9798 12.2604 15.9993 12.3397 16.0124 12.3954C16.0189 12.4231 16.0241 12.4456 16.0274 12.4618C16.0291 12.4696 16.0306 12.4773 16.0316 12.4837C16.032 12.4866 16.0328 12.4914 16.0331 12.4968C16.0333 12.4992 16.0337 12.5047 16.0332 12.5116C16.033 12.5149 16.0325 12.5213 16.0306 12.5291C16.0292 12.5348 16.0246 12.5529 16.0096 12.5706C16.0095 12.5707 16.0094 12.5708 16.0094 12.5709L15.9333 12.506C15.9281 12.5121 15.4674 12.6406 14.9095 12.7916L15.5295 10.2479ZM15.5295 10.2479C15.5421 10.2026 15.5721 10.1443 15.6875 10.0094C15.8022 9.87525 15.9918 9.67567 16.3108 9.34809L17.0717 8.56654C17.1094 8.52774 17.1095 8.46592 17.0717 8.42708M15.5295 10.2479L17.0717 8.42708M17.0717 8.42708L16.3104 7.64383C15.9934 7.31766 15.8035 7.11746 15.6882 6.98264C15.572 6.84665 15.5414 6.78782 15.5291 6.74391L17.0717 8.42708ZM4.61292 14.4374L4.61291 14.4374C4.53647 14.1579 4.45931 13.8937 4.39666 13.6935C4.36531 13.5933 4.33782 13.5098 4.31603 13.4488C4.3051 13.4181 4.29594 13.3941 4.28869 13.3767C4.28243 13.3618 4.27943 13.3564 4.27955 13.3563C4.25005 13.317 4.22342 13.2883 4.18731 13.2616C4.14951 13.2337 4.09739 13.2052 4.01405 13.1718C3.84493 13.1041 3.56683 13.0237 3.06156 12.8854L3.06155 12.8854C2.78117 12.8086 2.52553 12.7379 2.33952 12.6859C2.24654 12.6599 2.17079 12.6386 2.11799 12.6234C2.09165 12.6159 2.07069 12.6097 2.05604 12.6053L2.03767 12.5996L2.02937 12.5967C2.02806 12.5962 2.02514 12.5951 2.0217 12.5936C2.02011 12.5928 2.01665 12.5912 2.01251 12.5888L2.01241 12.5887C2.01101 12.5879 1.99675 12.5799 1.98444 12.5644L4.61292 14.4374ZM4.61292 14.4374C4.68966 14.7179 4.76029 14.9736 4.81226 15.1597C4.83823 15.2527 4.85959 15.3285 4.87475 15.3813C4.88231 15.4077 4.88842 15.4286 4.89283 15.4433L4.89853 15.4617L4.90142 15.47C4.90191 15.4713 4.90303 15.4742 4.90462 15.4777C4.90535 15.4793 4.90699 15.4828 4.90943 15.4869C4.90969 15.4874 4.91765 15.5021 4.93374 15.5149M4.61292 14.4374L9.06945 16.5717M9.06945 16.5717C9.03061 16.6095 8.96874 16.6094 8.92993 16.5716L8.14871 15.8104C7.82126 15.4914 7.62177 15.3016 7.48769 15.1869C7.3528 15.0714 7.29455 15.0415 7.2493 15.0288L7.24927 15.0288C7.21544 15.0193 7.19192 15.0145 7.1606 15.014C7.12717 15.0135 7.08091 15.0179 7.00333 15.0327C6.84692 15.0626 6.58488 15.1302 6.08468 15.2616C5.79413 15.3379 5.52905 15.4067 5.33601 15.456C5.23953 15.4806 5.16082 15.5005 5.10586 15.514C5.07846 15.5207 5.05651 15.5259 5.04106 15.5295C5.03349 15.5312 5.02662 15.5327 5.02116 15.5338C5.01868 15.5342 5.01491 15.535 5.01095 15.5355C5.00929 15.5357 5.00506 15.5363 4.99984 15.5365C4.99746 15.5365 4.99188 15.5367 4.98488 15.5359C4.98389 15.5358 4.95799 15.5341 4.93374 15.5149M9.06945 16.5717L9.85238 15.81C10.1784 15.4929 10.3785 15.3029 10.5133 15.1876C10.6492 15.0713 10.708 15.0407 10.7519 15.0284M9.06945 16.5717L4.70937 14.411C4.8628 14.9718 4.99166 15.4333 4.99579 15.4365M4.93374 15.5149L4.99579 15.4365M4.93374 15.5149C4.934 15.5151 4.93426 15.5153 4.93453 15.5155L4.99579 15.4365M4.99579 15.4365C4.99988 15.4397 5.47847 15.3175 6.05927 15.1649C7.05609 14.9029 7.12427 14.8899 7.27626 14.9325C7.41099 14.9702 7.56465 15.1017 8.2185 15.7388L8.99972 16.5L9.78265 15.7383C10.4338 15.105 10.5925 14.9692 10.7249 14.9321M10.7249 14.9321L10.7519 15.0284M10.7249 14.9321L10.7519 15.0284C10.7519 15.0284 10.7519 15.0284 10.7519 15.0284M10.7249 14.9321C10.8746 14.8902 10.9477 14.9041 11.9404 15.1644C12.5213 15.3167 12.9999 15.4389 13.004 15.436L13.062 15.5174L10.7519 15.0284M0.928291 8.56629C0.89057 8.52748 0.89057 8.46571 0.928291 8.4269L1.69089 7.6423C2.03431 7.28897 2.22295 7.09143 2.33067 6.96297C2.43566 6.83777 2.45499 6.78843 2.46831 6.7315C2.47676 6.69536 2.48119 6.66828 2.48107 6.63334C2.48093 6.59673 2.47575 6.54794 2.46067 6.46971C2.43025 6.31188 2.3634 6.05267 2.23487 5.56521C2.15933 5.27866 2.09128 5.01723 2.04251 4.82682C2.01814 4.73167 1.99852 4.65403 1.98516 4.5998C1.97851 4.57276 1.9733 4.55109 1.96981 4.53583C1.96811 4.52835 1.96661 4.52154 1.96556 4.51611C1.96508 4.51365 1.96437 4.50988 1.96383 4.50589C1.96361 4.50422 1.96305 4.49996 1.96288 4.49469C1.9628 4.49229 1.96267 4.48668 1.96348 4.47965C1.96348 4.47961 1.96349 4.47953 1.9635 4.47943C1.96377 4.47663 1.96611 4.45199 1.98444 4.4288M0.928291 8.56629L4.93374 1.47832C4.9182 1.49063 4.91024 1.50483 4.90949 1.50617L4.90943 1.50627C4.90699 1.51043 4.90535 1.51391 4.90462 1.51552C4.90303 1.51897 4.90191 1.52191 4.90142 1.52322L4.89853 1.53153L4.89283 1.54991C4.88842 1.56456 4.88231 1.58553 4.87475 1.61188C4.85959 1.6647 4.83823 1.74048 4.81226 1.83349C4.76029 2.01957 4.68966 2.27531 4.61292 2.55581L4.61291 2.55582C4.47466 3.0613 4.39426 3.33952 4.32657 3.50872C4.29322 3.5921 4.26474 3.64424 4.23682 3.68207C4.21017 3.71819 4.18142 3.74483 4.14215 3.77434C4.14208 3.77422 4.1367 3.77722 4.12174 3.78348C4.10442 3.79073 4.08037 3.79989 4.04975 3.81083C3.98869 3.83263 3.90526 3.86013 3.80509 3.89149C3.60496 3.95416 3.34093 4.03135 3.06155 4.10783L3.06155 4.10783C2.78117 4.18461 2.52553 4.25527 2.33952 4.30726C2.24654 4.33324 2.17079 4.35462 2.11799 4.36978C2.09165 4.37734 2.07069 4.38346 2.05604 4.38786L2.03767 4.39357L2.02937 4.39645C2.02806 4.39694 2.02514 4.39806 2.0217 4.39963C2.02011 4.40036 2.01665 4.40199 2.01251 4.40441L2.01241 4.40446C2.01102 4.40524 1.99675 4.41324 1.98444 4.4288M0.928291 8.56629L1.69089 9.35089C2.03431 9.70422 2.22295 9.90176 2.33067 10.0302C2.43566 10.1554 2.45499 10.2048 2.46831 10.2617C2.47676 10.2978 2.48119 10.3249 2.48107 10.3599C2.48093 10.3965 2.47575 10.4452 2.46067 10.5235C2.43025 10.6813 2.3634 10.9405 2.23487 11.428C2.15933 11.7145 2.09128 11.976 2.04251 12.1664M0.928291 8.56629L2.04251 12.1664M1.98444 4.4288L2.06288 4.49082L1.98417 4.42915C1.98426 4.42903 1.98435 4.42892 1.98444 4.4288ZM7.25614 2.06116L7.23013 1.9646C7.25126 1.95891 7.29812 1.93494 7.37647 1.8784C7.45138 1.82435 7.54595 1.74741 7.65998 1.64725C7.88785 1.44709 8.18833 1.15876 8.55625 0.7864L8.55625 0.786395C8.65348 0.688012 8.74354 0.598387 8.81039 0.533192C8.84373 0.50067 8.87172 0.473826 8.89208 0.454901C8.90212 0.445565 8.91111 0.437416 8.91827 0.431286C8.92166 0.428389 8.926 0.424769 8.93051 0.421439C8.93257 0.419917 8.93659 0.41701 8.94169 0.41404C8.94419 0.412585 8.94882 0.410014 8.95487 0.407541C8.95892 0.405886 8.97348 0.4 8.99314 0.4C9.01324 0.4 9.02812 0.406205 9.0317 0.407697L9.03183 0.407753C9.03757 0.410142 9.0419 0.412576 9.04411 0.413863C9.04867 0.41652 9.05217 0.419035 9.05374 0.420177C9.05727 0.422748 9.06045 0.425356 9.06255 0.427103C9.06712 0.430909 9.07264 0.435767 9.07856 0.441078C9.09065 0.451926 9.1075 0.467461 9.12829 0.486878C9.17002 0.525848 9.22922 0.581955 9.30142 0.65091C9.44589 0.788893 9.64319 0.97908 9.8585 1.1882C10.2094 1.52904 10.4065 1.71708 10.5349 1.82477C10.6604 1.92995 10.7099 1.94961 10.7656 1.96263C10.801 1.9709 10.828 1.97523 10.863 1.97501C10.8998 1.97478 10.9488 1.96949 11.0272 1.95435C11.1854 1.92382 11.4447 1.85709 11.9301 1.72924C12.2165 1.65382 12.4778 1.58582 12.6681 1.53704C12.7632 1.51266 12.8408 1.49302 12.895 1.47964C12.922 1.47297 12.9436 1.46775 12.9589 1.46425C12.9663 1.46253 12.973 1.46104 12.9784 1.45998C12.9808 1.45949 12.9844 1.4588 12.9882 1.45826C12.9898 1.45803 12.9938 1.45748 12.9988 1.45725C13.0011 1.45714 13.0063 1.45695 13.013 1.45756C13.0163 1.45787 13.0221 1.45856 13.0291 1.46037C13.0349 1.46189 13.0483 1.46584 13.0625 1.47607C13.0626 1.47616 13.0627 1.47624 13.0629 1.47633L7.25614 2.06116ZM7.25614 2.06116L7.23013 1.9646C7.17985 1.97815 7.13655 1.98499 6.98206 1.95488C6.82321 1.92392 6.5614 1.85687 6.0784 1.72997L7.25614 2.06116ZM11.7026 5.12418C11.7026 5.12416 11.7026 5.12415 11.7026 5.12415C11.7026 5.12412 11.7019 5.1245 11.7006 5.12509L11.7026 5.12418ZM11.7026 5.12418C11.7824 5.087 11.8469 5.06986 11.9059 5.06724C11.9648 5.06463 12.0246 5.07617 12.0954 5.10573L12.2986 5.26977C12.3643 5.34789 12.4071 5.42881 12.4179 5.48655C12.4205 5.50037 12.4229 5.51262 12.4251 5.52365C12.4377 5.58726 12.4421 5.61001 12.4253 5.65574C12.4013 5.72098 12.3325 5.82477 12.146 6.03423C11.803 6.41958 11.1005 7.12227 9.68789 8.53523C9.58357 8.63958 9.47537 8.7478 9.36316 8.86006C9.24207 8.9812 9.12567 9.09767 9.01377 9.20964C7.61346 10.6108 6.91716 11.3075 6.53459 11.6475C6.32543 11.8333 6.22228 11.9009 6.15735 11.924C6.11204 11.9401 6.08898 11.9355 6.02573 11.9229C6.01344 11.9204 5.99963 11.9177 5.98384 11.9147C5.91574 11.9019 5.82204 11.8455 5.73726 11.7607C5.65248 11.6758 5.59604 11.5821 5.58327 11.5139L5.58327 11.5139C5.58041 11.4987 5.57776 11.4853 5.57538 11.4734C5.5627 11.4094 5.55804 11.386 5.57415 11.3404C5.59705 11.2756 5.6639 11.173 5.84758 10.9655C6.18409 10.5852 6.87377 9.8938 8.26072 8.50334C8.36937 8.39442 8.48229 8.2812 8.59967 8.16351C9.62069 7.13973 10.3772 6.38747 10.891 5.88528C11.148 5.63412 11.3438 5.44597 11.4815 5.31783C11.5504 5.25369 11.6041 5.20521 11.6433 5.1716C11.6629 5.15475 11.6782 5.1423 11.6894 5.13372C11.6982 5.12697 11.7022 5.12448 11.7026 5.12418ZM12.5764 12.7504L12.5246 12.6649C12.907 12.4331 13.2729 11.9435 13.4055 11.4808L12.5764 12.7504ZM12.5764 12.7504L12.5246 12.6649C12.1778 12.8751 11.9185 12.9462 11.4908 12.9462C11.1884 12.9462 11.0679 12.9291 10.8915 12.868C10.0767 12.586 9.51017 11.8105 9.51017 10.9886C9.51017 10.4822 9.71911 9.99498 10.1084 9.60551C10.4132 9.30061 10.6947 9.14216 11.0659 9.06174M12.5764 12.7504L11.0659 9.06174M11.9867 10.209L11.9867 10.209C12.0825 10.2725 12.2073 10.3976 12.271 10.494M11.9867 10.209L12.271 11.4832M11.9867 10.209C11.9205 10.1652 11.8595 10.1338 11.7862 10.113C11.7146 10.0928 11.636 10.0841 11.5368 10.0794C11.2441 10.0659 10.9918 10.1596 10.8182 10.3398C10.6447 10.5198 10.5591 10.7765 10.5804 11.0707M11.9867 10.209L11.9853 11.769M12.271 10.494L12.1876 10.5492M12.271 10.494C12.271 10.494 12.271 10.494 12.271 10.494L12.1876 10.5492M12.271 10.494C12.3181 10.5652 12.3514 10.6247 12.3698 10.7038C12.3873 10.7785 12.3902 10.8655 12.3902 10.9886C12.3902 11.1116 12.3873 11.1987 12.3698 11.2733C12.3514 11.3524 12.3181 11.4119 12.271 11.4832M12.1876 10.5492C12.1312 10.4639 12.0159 10.3483 11.9315 10.2924L12.1876 10.5492ZM12.271 11.4832C12.2072 11.5796 12.0817 11.7052 11.9853 11.769M12.271 11.4832L11.9853 11.769M11.9853 11.769L11.9301 11.6856L11.9853 11.769C11.9853 11.769 11.9853 11.769 11.9853 11.769ZM11.9853 11.769C11.9141 11.8161 11.8546 11.8494 11.7755 11.8679C11.7009 11.8853 11.6139 11.8882 11.4908 11.8882C11.3678 11.8882 11.2808 11.8853 11.2062 11.8679C11.1271 11.8494 11.0676 11.8161 10.9964 11.769M10.9964 11.769L11.0516 11.6856L10.9964 11.769C10.9964 11.769 10.9964 11.769 10.9964 11.769ZM10.9964 11.769C10.7448 11.6025 10.6016 11.3645 10.5804 11.0707M10.5804 11.0707L10.6802 11.0635L10.5804 11.0708C10.5804 11.0708 10.5804 11.0707 10.5804 11.0707ZM15.9548 4.82975C15.9062 5.0237 15.8379 5.28945 15.7617 5.58023C15.6312 6.07852 15.5638 6.34094 15.5338 6.49789C15.5189 6.57579 15.5144 6.62247 15.5148 6.65615L15.9548 4.82975ZM15.9548 4.82975C15.9791 4.73285 15.9986 4.65353 16.0118 4.59788M15.9548 4.82975L16.0118 4.59788M16.0118 4.59788C16.0183 4.57017 16.0234 4.54766 16.0268 4.53156M16.0118 4.59788L16.0268 4.53156M16.0268 4.53156C16.0285 4.52372 16.03 4.51616 16.031 4.50984M16.0268 4.53156L16.031 4.50984M16.031 4.50984C16.0312 4.50843 16.0315 4.50657 16.0318 4.50442M16.031 4.50984L16.0318 4.50442M16.0318 4.50442C16.0321 4.50221 16.0324 4.4997 16.0326 4.49707M16.0318 4.50442L16.0326 4.49707M16.0326 4.49707C16.0328 4.49478 16.0331 4.48943 16.0328 4.48283M16.0326 4.49707L16.0328 4.48283M16.0328 4.48283C16.0327 4.47961 16.0322 4.4734 16.0305 4.4658M16.0328 4.48283L16.0305 4.4658M16.0305 4.4658C16.0293 4.4605 16.0252 4.44249 16.0107 4.42453L16.0305 4.4658ZM2.04251 12.1664C2.01814 12.2615 1.99852 12.3392 1.98516 12.3934M2.04251 12.1664L1.98516 12.3934M1.98516 12.3934C1.97851 12.4204 1.9733 12.4421 1.96981 12.4574M1.98516 12.3934L1.96981 12.4574M1.96981 12.4574C1.96811 12.4648 1.96661 12.4717 1.96556 12.4771M1.96981 12.4574L1.96556 12.4771M1.96556 12.4771C1.96508 12.4795 1.96437 12.4833 1.96383 12.4873M1.96556 12.4771L1.96383 12.4873M1.96383 12.4873C1.96361 12.489 1.96305 12.4932 1.96288 12.4985M1.96383 12.4873L1.96288 12.4985M1.96288 12.4985C1.9628 12.5009 1.96267 12.5065 1.96348 12.5135M1.96288 12.4985L1.96348 12.5135M1.96348 12.5135L1.9635 12.5138M1.96348 12.5135L1.9635 12.5138M1.9635 12.5138C1.96376 12.5166 1.96608 12.541 1.98417 12.564L1.9635 12.5138ZM5.10535 1.4791C5.16 1.49252 5.23825 1.51223 5.33416 1.53672L5.10535 1.4791ZM5.10535 1.4791C5.07811 1.47242 5.05628 1.46718 5.04091 1.46368M5.10535 1.4791L5.04091 1.46368M5.04091 1.46368C5.03338 1.46197 5.02654 1.46047 5.02109 1.45941M5.04091 1.46368L5.02109 1.45941M5.02109 1.45941C5.01862 1.45893 5.01485 1.45823 5.01087 1.45769M5.02109 1.45941L5.01087 1.45769M5.01087 1.45769C5.00921 1.45747 5.00497 1.45692 4.99973 1.45674M5.01087 1.45769L4.99973 1.45674M4.99973 1.45674C4.99734 1.45666 4.99175 1.45653 4.98474 1.45732M4.99973 1.45674L4.98474 1.45732M4.98474 1.45732C4.9847 1.45733 4.98463 1.45733 4.98453 1.45734M4.98474 1.45732L4.98453 1.45734M4.98453 1.45734C4.98188 1.45759 4.9576 1.45983 4.93453 1.4777L4.98453 1.45734ZM11.0659 9.06174C11.7082 8.92257 12.3408 9.09681 12.8188 9.54419M11.0659 9.06174L12.8188 9.54419M12.8188 9.54419C13.2519 9.94944 13.4462 10.3911 13.4481 10.9703M12.8188 9.54419L13.4481 10.9703M13.4481 10.9703C13.4484 11.0694 13.4435 11.1781 13.4353 11.2729M13.4481 10.9703L13.4353 11.2729M13.4353 11.2729C13.4269 11.3702 13.4157 11.4451 13.4055 11.4808L13.4353 11.2729ZM13.3869 2.55582L13.3869 2.55581L16.0105 4.42424C16.0008 4.41234 15.9907 4.40562 15.9881 4.40385C15.9839 4.40105 15.9803 4.39912 15.9783 4.3981C15.9752 4.39647 15.9724 4.39523 15.9706 4.39444C15.97 4.39421 15.9696 4.39402 15.9692 4.39387C15.9655 4.39235 15.962 4.39107 15.9595 4.3902C15.9541 4.38833 15.9473 4.38617 15.9399 4.38388C15.9249 4.37921 15.9036 4.37289 15.8772 4.36521C15.8241 4.34981 15.7482 4.32835 15.6554 4.30243C15.4696 4.25059 15.2147 4.18065 14.9356 4.10511C14.4336 3.96925 14.1563 3.88975 13.9872 3.82226C13.9039 3.789 13.8515 3.76042 13.8133 3.7323C13.7769 3.70542 13.7499 3.67636 13.7203 3.63689C13.7204 3.63681 13.7174 3.63142 13.7111 3.61645C13.7039 3.59912 13.6947 3.57507 13.6838 3.54443C13.662 3.48335 13.6345 3.39988 13.6032 3.29967C13.5405 3.09945 13.4634 2.83531 13.3869 2.55582ZM13.3869 14.4374L13.2904 14.411L13.0624 15.5172C13.0807 15.504 13.0897 15.4877 13.0898 15.4874C13.0924 15.483 13.0942 15.4794 13.095 15.4777C13.0966 15.4741 13.0978 15.4711 13.0983 15.4698L13.1012 15.4613L13.107 15.443C13.1114 15.4283 13.1175 15.4074 13.1251 15.381C13.1402 15.3283 13.1616 15.2525 13.1876 15.1596C13.2395 14.9736 13.3102 14.7179 13.3869 14.4374ZM6.16148 4.05957L6.14396 3.96111L6.16149 4.05957C6.60191 3.98117 7.19417 4.09924 7.56922 4.33999C7.69379 4.41996 7.83957 4.55198 7.97152 4.7003C8.10358 4.84874 8.2157 5.00666 8.27703 5.13522L8.27703 5.13522C8.48032 5.56133 8.53064 5.96713 8.43692 6.41173C8.35502 6.80022 8.20073 7.07822 7.89139 7.38768C7.39022 7.88906 6.77707 8.07627 6.11161 7.93519C5.42864 7.79038 4.8664 7.28688 4.63033 6.60424C4.56932 6.42781 4.55221 6.30717 4.55221 6.00463C4.55221 5.72448 4.58891 5.49458 4.66967 5.28548C4.75042 5.07641 4.87728 4.88277 5.06453 4.67781C5.35069 4.36458 5.77002 4.12923 6.16148 4.05957ZM7.00482 5.2251L7.0048 5.22509C6.87995 5.14246 6.71783 5.09845 6.5594 5.08939C6.40095 5.08034 6.23483 5.10559 6.10126 5.17348C5.75051 5.35169 5.57282 5.67141 5.59821 6.07038C5.62797 6.53821 5.96296 6.88182 6.42681 6.91538C6.57037 6.92576 6.69717 6.91566 6.815 6.87779C6.93335 6.83976 7.0369 6.77558 7.13638 6.68567L7.06932 6.61148L7.13638 6.68567C7.57838 6.28618 7.50699 5.55759 7.00482 5.2251Z" fill="#549112" stroke="#549112" stroke-width="0.2" stroke-linejoin="round"/>
</svg>
